  <svg viewBox="0 0 59 33" fill="none" xmlns="http://www.w3.org/2000/svg">
    <path
      d="M22.8676 6.53644H3.26822C2.38384 6.53644 1.57925 6.18402 0.990776 5.61216C0.379024 5.01703 0 4.18917 0 3.26822C0 2.40379 0.3358 1.61582 0.884382 1.03067C1.47951 0.395644 2.32732 0 3.2649 0H22.8642C23.7652 0 24.5831 0.365721 25.1749 0.957525C25.7667 1.54933 26.1325 2.36389 26.1325 3.26822C26.1325 4.11935 25.8066 4.89402 25.2713 5.47585C24.6795 6.13082 23.8218 6.53644 22.8676 6.53644Z"
      fill="#1E6A87"
    />
    <path
      d="M22.8676 19.6024H3.26822C2.36722 19.6024 1.54933 19.2367 0.957527 18.6449C0.365723 18.0531 0 17.2386 0 16.3342C0 15.5097 0.305877 14.755 0.811237 14.1798C1.40969 13.4982 2.28742 13.0693 3.2649 13.0693H22.8642C23.7652 13.0693 24.5831 13.4351 25.1749 14.0269C25.7667 14.6187 26.1325 15.4332 26.1325 16.3376C26.1325 17.1721 25.8199 17.9301 25.3079 18.5086C24.7095 19.1802 23.8384 19.6024 22.8676 19.6024Z"
      fill="#1E6A87"
    />
    <path
      d="M22.8677 32.6689H3.26832C2.08803 32.6689 1.05071 32.0405 0.478853 31.0996C0.176302 30.6042 0.00341797 30.0224 0.00341797 29.4006C0.00341797 28.5528 0.325917 27.7848 0.854551 27.203C1.453 26.548 2.31411 26.1357 3.27163 26.1357H22.871C23.772 26.1357 24.5899 26.5015 25.1817 27.0933C25.7735 27.6851 26.1392 28.4996 26.1392 29.404C26.1392 30.305 25.7735 31.1229 25.1817 31.7147C24.5865 32.3031 23.7687 32.6689 22.8677 32.6689Z"
      fill="#1E6A87"
    />
    <path
      d="M58.8014 22.8707C58.8014 28.2833 54.4127 32.6687 49.0034 32.6687H35.9338C34.1318 32.6687 32.6689 31.2058 32.6689 29.4038V29.4005C32.6689 27.5984 34.1318 26.1356 35.9338 26.1356H49.0001C50.8054 26.1356 52.2683 24.6727 52.2683 22.8673C52.2683 21.062 50.8054 19.5991 49.0001 19.5991H35.9338C34.1318 19.5991 32.6689 18.1362 32.6689 16.3342C32.6689 14.5322 34.1318 13.0693 35.9338 13.0693H49.0034C54.4127 13.0727 58.8014 17.458 58.8014 22.8707Z"
      fill="#1D9DB1"
    />
    <path
      d="M58.8014 9.80142C58.8014 15.2141 54.4127 19.5994 49.0034 19.5994H35.9338C34.1318 19.5994 32.6689 18.1365 32.6689 16.3345C32.6689 14.5325 34.1318 13.0696 35.9338 13.0696H49.0001C50.8054 13.0696 52.2683 11.6068 52.2683 9.80142C52.2683 7.99609 50.8054 6.53321 49.0001 6.53321H35.9338C34.1318 6.53321 32.6689 5.07032 32.6689 3.26831C32.6689 1.4663 34.1318 0.00341797 35.9338 0.00341797H49.0034C54.4127 0.00341797 58.8014 4.39207 58.8014 9.80142Z"
      fill="#1D9DB1"
    />
  </svg>